<?xml version="1.0" encoding="utf-8"?>
<!-- Generator: Adobe Illustrator 25.2.1, SVG Export Plug-In . SVG Version: 6.00 Build 0)  -->
<svg version="1.1" id="Capa_1" xmlns="http://www.w3.org/2000/svg" xmlns:xlink="http://www.w3.org/1999/xlink" x="0px" y="0px"
	 viewBox="0 0 135 40" style="enable-background:new 0 0 135 40;" xml:space="preserve">
<style type="text/css">
	.st0{fill:#A6A6A6;}
	.st1{fill:#FFFFFF;}
</style>
<g>
	<g>
		<path d="M130,40.1H5c-2.8,0-5-2.2-5-5v-30c0-2.8,2.2-5,5-5h125c2.8,0,5,2.2,5,5v30C135,37.9,132.8,40.1,130,40.1z"/>
	</g>
	<g>
		<g>
			<path class="st0" d="M130,0.9c2.3,0,4.2,1.9,4.2,4.2v30c0,2.3-1.9,4.2-4.2,4.2H5c-2.3,0-4.2-1.9-4.2-4.2v-30
				c0-2.3,1.9-4.2,4.2-4.2H130 M130,0.1H5c-2.8,0-5,2.2-5,5v30c0,2.8,2.2,5,5,5h125c2.8,0,5-2.2,5-5v-30C135,2.4,132.8,0.1,130,0.1
				L130,0.1z"/>
		</g>
	</g>
	<g>
		<path class="st1" d="M45.9,27.7l-1.1,3.8h-2.5l4.3-13.3h3.1l4.3,13.3h-2.6l-1.2-3.8H45.9z M49.7,25.9l-1-3.3
			c-0.3-0.8-0.5-1.7-0.7-2.5h0c-0.2,0.8-0.4,1.7-0.6,2.5l-1,3.3H49.7z"/>
		<path class="st1" d="M55.3,25.1c0-1.3,0-2.3-0.1-3.2h2.1l0.1,1.5h0c0.7-1.1,1.8-1.7,3.3-1.7c2.2,0,4,1.9,4,4.9
			c0,3.5-2.2,5.2-4.4,5.2c-1.2,0-2.2-0.5-2.7-1.3h0v5h-2.4V25.1z M57.7,27.5c0,0.2,0,0.5,0.1,0.7c0.3,1,1.1,1.7,2.2,1.7
			c1.5,0,2.4-1.3,2.4-3.2c0-1.7-0.8-3.1-2.4-3.1c-1,0-1.9,0.7-2.2,1.8c0,0.2-0.1,0.4-0.1,0.6V27.5z"/>
		<path class="st1" d="M66.4,25.1c0-1.3,0-2.3-0.1-3.2h2.1l0.1,1.5h0c0.7-1.1,1.8-1.7,3.3-1.7c2.2,0,4,1.9,4,4.9
			c0,3.5-2.2,5.2-4.4,5.2c-1.2,0-2.2-0.5-2.7-1.3h0v5h-2.4V25.1z M68.8,27.5c0,0.2,0,0.5,0.1,0.7c0.3,1,1.1,1.7,2.2,1.7
			c1.5,0,2.4-1.3,2.4-3.2c0-1.7-0.8-3.1-2.4-3.1c-1,0-1.9,0.7-2.2,1.8c0,0.2-0.1,0.4-0.1,0.6V27.5z"/>
		<path class="st1" d="M80,28.9c0.8,0.5,2,0.8,3.2,0.8c1.5,0,2.4-0.7,2.4-1.8c0-1-0.7-1.6-2.3-2.2c-2.2-0.8-3.6-2-3.6-3.9
			c0-2.2,1.8-3.8,4.7-3.8c1.4,0,2.5,0.3,3.2,0.7l-0.6,2c-0.5-0.3-1.4-0.6-2.7-0.6c-1.5,0-2.2,0.8-2.2,1.6c0,1,0.8,1.5,2.5,2.2
			c2.3,0.9,3.4,2,3.4,3.9c0,2.2-1.6,4-5,4c-1.4,0-2.9-0.4-3.6-0.8L80,28.9z"/>
		<path class="st1" d="M92.8,19.4v2.5h2.3v1.8h-2.3v4.2c0,1.2,0.3,1.8,1.2,1.8c0.4,0,0.7,0,0.9-0.1l0,1.8c-0.4,0.1-1,0.3-1.8,0.3
			c-0.9,0-1.6-0.3-2.1-0.8c-0.5-0.6-0.8-1.4-0.8-2.7v-4.5h-1.4v-1.8h1.4v-1.8L92.8,19.4z"/>
		<path class="st1" d="M105.8,26.6c0,3.5-2.5,5.1-4.9,5.1c-2.7,0-4.8-1.9-4.8-5c0-3.2,2.1-5.1,5-5.1
			C103.9,21.7,105.8,23.7,105.8,26.6z M98.5,26.7c0,1.9,0.9,3.3,2.4,3.3c1.4,0,2.3-1.3,2.3-3.3c0-1.5-0.7-3.2-2.3-3.2
			C99.2,23.4,98.5,25.1,98.5,26.7z"/>
		<path class="st1" d="M107.4,25c0-1.3,0-2.3-0.1-3.1h2.1l0.1,1.8h0.1c0.5-1.3,1.6-2,2.6-2c0.2,0,0.4,0,0.6,0.1V24
			c-0.2,0-0.4-0.1-0.7-0.1c-1.1,0-2,0.7-2.2,1.8c0,0.2-0.1,0.5-0.1,0.7v5h-2.4V25z"/>
		<path class="st1" d="M115.9,27.4c0.1,1.7,1.4,2.5,3,2.5c1.1,0,1.9-0.2,2.7-0.4l0.4,1.7c-0.8,0.4-2,0.6-3.4,0.6c-3.1,0-5-1.9-5-4.9
			c0-2.7,1.6-5.2,4.7-5.2c3.1,0,4.1,2.6,4.1,4.7c0,0.5,0,0.8-0.1,1H115.9z M120.1,25.7c0-0.9-0.4-2.3-2-2.3c-1.5,0-2.1,1.4-2.2,2.3
			H120.1z"/>
	</g>
	<g>
		<path class="st1" d="M45.9,6.2c2.4,0,3.8,1.5,3.8,4c0,2.6-1.4,4-3.8,4h-2.7V6.2H45.9z M44.2,13.3h1.6c1.8,0,2.9-1.1,2.9-3.1
			c0-2-1-3.1-2.9-3.1h-1.6V13.3z"/>
		<path class="st1" d="M56,12.6c-0.2,1-1.2,1.8-2.4,1.8c-1.7,0-2.7-1.2-2.7-3c0-1.8,1-3,2.6-3c1.6,0,2.5,1.1,2.5,2.9v0.4h-4.2v0.1
			c0,1.1,0.7,1.9,1.7,1.9c0.7,0,1.3-0.4,1.4-0.9H56z M51.9,10.8h3.2c0-1-0.6-1.7-1.6-1.7C52.6,9.2,52,9.9,51.9,10.8z"/>
		<path class="st1" d="M59.4,8.3c1.2,0,2.1,0.7,2.1,1.7h-0.9c-0.1-0.6-0.5-0.9-1.2-0.9c-0.7,0-1.2,0.4-1.2,0.9c0,0.4,0.3,0.7,1,0.8
			L60,11c1.2,0.3,1.6,0.7,1.6,1.6c0,1-1,1.7-2.3,1.7c-1.3,0-2.2-0.7-2.3-1.7h1c0.1,0.6,0.6,0.9,1.4,0.9c0.8,0,1.3-0.3,1.3-0.9
			c0-0.4-0.2-0.6-0.9-0.8l-1-0.3c-1-0.3-1.5-0.8-1.5-1.6C57.2,9,58.1,8.3,59.4,8.3z"/>
		<path class="st1" d="M66.8,10.3c-0.1-0.6-0.6-1.2-1.5-1.2c-1,0-1.7,0.8-1.7,2.2c0,1.4,0.7,2.2,1.7,2.2c0.8,0,1.3-0.4,1.5-1.1h1
			c-0.2,1.2-1.1,2-2.5,2c-1.6,0-2.7-1.1-2.7-3c0-1.8,1.1-3,2.7-3c1.5,0,2.3,1,2.5,2H66.8z"/>
		<path class="st1" d="M68.4,12.6c0-1,0.8-1.6,2.1-1.7l1.7-0.1v-0.5c0-0.7-0.5-1.1-1.3-1.1c-0.8,0-1.2,0.4-1.3,0.9h-0.9
			c0.1-1,0.9-1.8,2.3-1.8c1.4,0,2.2,0.7,2.2,1.9v4h-0.9v-1h0c-0.3,0.7-1.1,1.1-1.9,1.1C69.2,14.3,68.4,13.6,68.4,12.6z M72.2,12
			v-0.5l-1.6,0.1c-0.8,0.1-1.2,0.4-1.2,0.9c0,0.6,0.5,0.9,1.2,0.9C71.5,13.5,72.2,12.9,72.2,12z"/>
		<path class="st1" d="M74.8,8.4h0.9v1h0c0.2-0.6,0.7-1.1,1.4-1.1c0.2,0,0.3,0,0.4,0v0.9c-0.1,0-0.3-0.1-0.5-0.1
			c-0.8,0-1.3,0.5-1.3,1.4v3.6h-1V8.4z"/>
		<path class="st1" d="M78.1,14.7h1c0.2,0.5,0.8,0.9,1.5,0.9c1,0,1.6-0.6,1.6-1.5v-0.9h0c-0.4,0.6-1,1-1.9,1c-1.5,0-2.5-1.2-2.5-3
			c0-1.8,1-3,2.5-3c0.8,0,1.5,0.4,1.9,1.1h0v-1h0.9v5.7c0,1.4-1,2.3-2.6,2.3C79.3,16.4,78.3,15.7,78.1,14.7z M82.2,11.3
			c0-1.3-0.7-2.1-1.7-2.1c-1,0-1.7,0.8-1.7,2.1s0.7,2.1,1.7,2.1C81.6,13.4,82.2,12.6,82.2,11.3z"/>
		<path class="st1" d="M84.6,12.6c0-1,0.8-1.6,2.1-1.7l1.7-0.1v-0.5c0-0.7-0.5-1.1-1.3-1.1c-0.8,0-1.2,0.4-1.3,0.9h-0.9
			c0.1-1,0.9-1.8,2.3-1.8c1.4,0,2.2,0.7,2.2,1.9v4h-0.9v-1h0c-0.3,0.7-1.1,1.1-1.9,1.1C85.4,14.3,84.6,13.6,84.6,12.6z M88.4,12
			v-0.5l-1.6,0.1c-0.8,0.1-1.2,0.4-1.2,0.9c0,0.6,0.5,0.9,1.2,0.9C87.7,13.5,88.4,12.9,88.4,12z"/>
		<path class="st1" d="M90.9,8.4h0.9v1h0c0.2-0.6,0.7-1.1,1.4-1.1c0.2,0,0.3,0,0.4,0v0.9c-0.1,0-0.3-0.1-0.5-0.1
			c-0.8,0-1.3,0.5-1.3,1.4v3.6h-1V8.4z"/>
		<path class="st1" d="M97.2,11.3c0-1.8,1-3,2.5-3c0.8,0,1.5,0.4,1.9,1h0V6.2h1v8.1h-0.9v-1h0c-0.4,0.7-1,1.1-1.9,1.1
			C98.2,14.3,97.2,13.2,97.2,11.3z M98.2,11.3c0,1.3,0.7,2.2,1.7,2.2c1,0,1.7-0.9,1.7-2.2c0-1.3-0.7-2.2-1.7-2.2
			C98.8,9.2,98.2,10,98.2,11.3z"/>
		<path class="st1" d="M108.6,12.6c-0.2,1-1.2,1.8-2.4,1.8c-1.7,0-2.7-1.2-2.7-3c0-1.8,1-3,2.6-3c1.6,0,2.5,1.1,2.5,2.9v0.4h-4.2
			v0.1c0,1.1,0.7,1.9,1.7,1.9c0.7,0,1.3-0.4,1.4-0.9H108.6z M104.5,10.8h3.2c0-1-0.6-1.7-1.6-1.7C105.2,9.2,104.6,9.9,104.5,10.8z"
			/>
		<path class="st1" d="M113.2,6.2h1v8.1h-1V6.2z"/>
		<path class="st1" d="M115.6,12.6c0-1,0.8-1.6,2.1-1.7l1.7-0.1v-0.5c0-0.7-0.5-1.1-1.3-1.1c-0.8,0-1.2,0.4-1.3,0.9h-0.9
			c0.1-1,0.9-1.8,2.3-1.8c1.4,0,2.2,0.7,2.2,1.9v4h-0.9v-1h0c-0.3,0.7-1.1,1.1-1.9,1.1C116.4,14.3,115.6,13.6,115.6,12.6z M119.4,12
			v-0.5l-1.6,0.1c-0.8,0.1-1.2,0.4-1.2,0.9c0,0.6,0.5,0.9,1.2,0.9C118.7,13.5,119.4,12.9,119.4,12z"/>
	</g>
	<g>
		<g>
			<path class="st1" d="M23,12.3c0.6,0,2.4-0.4,3.7-2.4c1.2-1.8,1.1-3.7,1.1-3.7S25.8,6,23.9,8.3c-1.3,1.6-1.2,4-1.2,4
				S22.8,12.3,23,12.3z"/>
			<path class="st1" d="M33.4,25.2c0.1-0.3,0.2-0.5,0.2-0.5s0,0,0,0l0,0c0,0,0,0,0,0l0,0c-0.1,0-0.3-0.1-0.6-0.3l0,0
				c-0.6-0.4-1.4-1-2-2.1l0,0c-0.4-0.7-0.7-1.5-0.7-2.6c0-0.5,0-1,0.1-1.5v0c0-0.2,0.1-0.3,0.1-0.4l0,0c0.5-1.7,1.8-2.9,2.3-3.3l0,0
				c0.1-0.1,0.2-0.2,0.2-0.2s-1.6-2.5-4.7-2.5c-2.6,0-3.6,1.2-5,1.2c-1.7,0-2-1.1-4.5-1.1c-1.3,0-3.1,0.5-4.5,2.3
				c-1.1,1.4-1.5,3-1.6,4.2l0,0c-0.1,0.8-0.1,1.7,0,2.7l0,0c0,0.1,0,0.1,0,0.2c0.1,1,0.4,2,0.7,3.1l0,0c0,0,0,0.1,0,0.1
				c0,0.1,0.1,0.3,0.1,0.4c0,0.1,0.1,0.1,0.1,0.2s0,0.1,0.1,0.2l0,0c0.3,0.9,0.7,1.7,1.2,2.5l0,0c1.3,2.3,3,4.1,4.6,4.1
				c1.8,0,2.4-1.2,4.2-1.2c2.3,0,2.9,1.5,4.9,1.1c1.3-0.3,2.8-2.1,3.8-3.8c0-0.1,0.1-0.1,0.1-0.2l0,0C32.8,26.7,33.2,25.7,33.4,25.2
				L33.4,25.2z"/>
		</g>
	</g>
</g>
</svg>
