<svg xmlns="http://www.w3.org/2000/svg" width="39.991" height="40" viewBox="0 0 39.991 40">
  <g id="contract" transform="translate(-0.055 0)">
    <path id="Trazado_480" data-name="Trazado 480" d="M7.566,1.985,2.04,7.511H7.566Z" transform="translate(-1.83 -1.83)" fill="#002c76"/>
    <path id="Trazado_481" data-name="Trazado 481" d="M430.133,88.226l-1.657-1.657-2.819,2.819a1.313,1.313,0,0,0-.974.383L423.2,91.254l2.248,2.248,1.483-1.483a1.309,1.309,0,0,0,.386-.932c0-.014,0-.029,0-.043Z" transform="translate(-390.087 -79.806)" fill="#002c76"/>
    <path id="Trazado_482" data-name="Trazado 482" d="M0,0H19.519V3.179H0Z" transform="translate(17.65 26.908) rotate(-45)" fill="#002c76"/>
    <path id="Trazado_483" data-name="Trazado 483" d="M189.583,367.728l-1.408,3.329,3.329-1.408Z" transform="translate(-173.423 -338.999)" fill="#002c76"/>
    <path id="Trazado_484" data-name="Trazado 484" d="M12.447,35.578l-1.994-1.994L8.673,35.363H3.789V33.019H7.7l2.75-2.75,1.765,1.765,2.2-5.206,3.474-3.474H5.177V21.01H20.237l2.635-2.635H5.177V16.031h20.04l5.14-5.14V0H8.08V8.025H.055V40h30.3V22.016L19.982,32.39ZM8.682,11.051H21.729V13.4H8.682Z" fill="#002c76"/>
  </g>
</svg>
