<svg xmlns="http://www.w3.org/2000/svg" width="42.039" height="39.361" viewBox="0 0 42.039 39.361"><defs><style>.a{fill:#002c76;}</style></defs><g transform="translate(2.627 20.969)"><g transform="translate(0 0)"><path class="a" d="M32,271.692v15.765a2.63,2.63,0,0,0,2.627,2.627H47.765V271.692Z" transform="translate(-32 -271.692)"/></g></g><g transform="translate(0 0)"><g transform="translate(0 0)"><path class="a" d="M39.411,26.767H31.1a10.209,10.209,0,0,0,1.466-1.174,5.492,5.492,0,0,0,0-7.73,5.552,5.552,0,0,0-7.706,0c-1.14,1.143-4.162,5.8-3.744,8.9h-.189c.415-3.108-2.606-7.761-3.744-8.9a5.557,5.557,0,0,0-7.706,0,5.5,5.5,0,0,0,0,7.73,10.4,10.4,0,0,0,1.469,1.174H2.627A2.632,2.632,0,0,0,0,29.395v3.941a1.314,1.314,0,0,0,1.314,1.314H18.392V29.395h5.255v5.255H40.725a1.314,1.314,0,0,0,1.314-1.314V29.395A2.63,2.63,0,0,0,39.411,26.767ZM18.237,26.68a.866.866,0,0,1-.486.087c-1.816,0-5.281-1.886-6.414-3.027a2.866,2.866,0,0,1,0-4.025,2.8,2.8,0,0,1,3.981,0C17.089,21.5,18.849,26.047,18.237,26.68Zm6.048.087c-.373,0-.483-.084-.483-.087-.612-.633,1.148-5.184,2.919-6.965A2.831,2.831,0,0,1,30.7,23.74C29.569,24.881,26.1,26.767,24.285,26.767Z" transform="translate(0 -16.308)"/></g></g><g transform="translate(23.647 20.969)"><g transform="translate(0 0)"><path class="a" d="M288,271.692v18.392h13.137a2.628,2.628,0,0,0,2.627-2.627V271.692Z" transform="translate(-288 -271.692)"/></g></g></svg>