<svg xmlns="http://www.w3.org/2000/svg" width="42.064" height="42.064" viewBox="0 0 42.064 42.064"><defs><style>.a{fill:#002c76;}</style></defs><path class="a" d="M21.031,0A21.032,21.032,0,1,0,42.064,21.031,21.033,21.033,0,0,0,21.031,0Zm4.378,32.6q-1.624.641-2.591.976a6.834,6.834,0,0,1-2.247.337,4.478,4.478,0,0,1-3.057-.96,3.1,3.1,0,0,1-1.088-2.434,8.841,8.841,0,0,1,.08-1.173c.055-.4.142-.848.262-1.351L18.124,23.2c.119-.459.223-.9.3-1.3a5.771,5.771,0,0,0,.121-1.127,1.736,1.736,0,0,0-.377-1.277,2.144,2.144,0,0,0-1.448-.358,3.8,3.8,0,0,0-1.077.16c-.365.112-.682.214-.942.313l.358-1.474q1.33-.542,2.546-.928a7.522,7.522,0,0,1,2.3-.388,4.395,4.395,0,0,1,3.013.944,3.135,3.135,0,0,1,1.058,2.45q0,.312-.073,1.1a7.351,7.351,0,0,1-.271,1.444l-1.348,4.772c-.11.383-.208.821-.3,1.31a6.929,6.929,0,0,0-.13,1.115,1.6,1.6,0,0,0,.426,1.3,2.382,2.382,0,0,0,1.472.345,4.271,4.271,0,0,0,1.115-.173,6.337,6.337,0,0,0,.9-.3Zm-.239-19.368a3.217,3.217,0,0,1-2.27.876,3.25,3.25,0,0,1-2.279-.876,2.8,2.8,0,0,1-.949-2.124,2.825,2.825,0,0,1,.949-2.129A3.227,3.227,0,0,1,22.9,8.089a3.191,3.191,0,0,1,2.27.885,2.868,2.868,0,0,1,0,4.254Z"/></svg>